<svg width="33" height="32" viewBox="0 0 33 32" fill="none" xmlns="http://www.w3.org/2000/svg">
<rect width="32" height="32" transform="translate(0.5)" fill="#FFD700"/>
<path d="M15.756 25H9.444V7.456H15.588C17.316 7.456 18.836 7.832 20.148 8.584C21.46 9.32 22.484 10.352 23.22 11.68C23.972 12.992 24.348 14.52 24.348 16.264C24.348 17.976 23.98 19.496 23.244 20.824C22.524 22.136 21.516 23.16 20.22 23.896C18.94 24.632 17.452 25 15.756 25ZM12.516 8.872V23.608L11.052 22.168H15.468C16.636 22.168 17.644 21.928 18.492 21.448C19.34 20.968 19.988 20.288 20.436 19.408C20.884 18.528 21.108 17.48 21.108 16.264C21.108 15.016 20.876 13.952 20.412 13.072C19.948 12.176 19.284 11.488 18.42 11.008C17.556 10.528 16.516 10.288 15.3 10.288H11.052L12.516 8.872Z" fill="black"/>
<path d="M15.476 27.088V6.016H17.276V27.088H15.476Z" fill="black"/>
</svg>
